<?xml version="1.0" encoding="utf-8"?>
<!-- Generator: Adobe Illustrator 15.0.0, SVG Export Plug-In . SVG Version: 6.00 Build 0)  -->
<!DOCTYPE svg PUBLIC "-//W3C//DTD SVG 1.1//EN" "http://www.w3.org/Graphics/SVG/1.1/DTD/svg11.dtd">
<svg version="1.1" id="Слой_1" xmlns="http://www.w3.org/2000/svg" xmlns:xlink="http://www.w3.org/1999/xlink" x="0px" y="0px"
	 width="26.121px" height="29.773px" viewBox="0 0 26.121 29.773" enable-background="new 0 0 26.121 29.773" xml:space="preserve">
<g>
	<path fill="#FFFFFF" d="M11.115,1.563L4.398,0.04C3.558-0.152,2.734,0.372,2.544,1.207C2.356,2.042,2.879,2.872,3.713,3.062
		l2.924,0.664C2.57,6.026,0,10.364,0,15.092c0,5.14,3.03,9.82,7.723,11.923c0.205,0.092,0.419,0.137,0.631,0.137
		c0.595,0,1.16-0.342,1.416-0.916c0.35-0.781,0-1.699-0.779-2.049C5.41,22.583,3.1,19.014,3.1,15.092
		c0-3.714,2.09-7.094,5.354-8.806l-0.72,3.163c-0.188,0.835,0.336,1.665,1.168,1.854c0.117,0.027,0.232,0.039,0.347,0.039
		c0.706,0,1.348-0.487,1.509-1.206l1.527-6.717c0.091-0.401,0.018-0.821-0.203-1.169C11.863,1.901,11.516,1.655,11.115,1.563z"/>
	<path fill="#FFFFFF" d="M22.473,26.711l-2.479-0.551c3.771-2.367,6.127-6.538,6.127-11.068c0-5.261-3.132-9.984-7.978-12.033
		c-0.784-0.332-1.697,0.036-2.03,0.823c-0.332,0.79,0.034,1.699,0.822,2.031c3.698,1.563,6.086,5.167,6.086,9.179
		c0,3.733-2.109,7.128-5.399,8.832l0.797-3.58c0.186-0.836-0.341-1.663-1.177-1.85c-0.834-0.18-1.663,0.34-1.849,1.176l-1.496,6.722
		c-0.088,0.401-0.016,0.821,0.207,1.168c0.221,0.347,0.57,0.592,0.97,0.681l6.725,1.496c0.115,0.025,0.228,0.037,0.34,0.037
		c0.708,0,1.349-0.492,1.512-1.213C23.834,27.726,23.307,26.896,22.473,26.711z"/>
</g>
</svg>
