<?xml version="1.0" encoding="utf-8"?>
<!-- Generator: Adobe Illustrator 15.0.0, SVG Export Plug-In . SVG Version: 6.00 Build 0)  -->
<!DOCTYPE svg PUBLIC "-//W3C//DTD SVG 1.1//EN" "http://www.w3.org/Graphics/SVG/1.1/DTD/svg11.dtd">
<svg version="1.1" id="Слой_1" xmlns="http://www.w3.org/2000/svg" xmlns:xlink="http://www.w3.org/1999/xlink" x="0px" y="0px"
	 width="29.582px" height="39.767px" viewBox="0 0 29.582 39.767" enable-background="new 0 0 29.582 39.767" xml:space="preserve">
<g>
	<g>
		<path fill="#FFFFFF" d="M24.749,39.767H6.376c-0.487,0-0.903-0.35-0.985-0.83L1.925,18.832c-0.05-0.291,0.031-0.588,0.221-0.814
			s0.47-0.356,0.765-0.356h24.941c0.292,0,0.569,0.127,0.76,0.349c0.189,0.222,0.273,0.515,0.229,0.803l-3.104,20.105
			C25.663,39.408,25.243,39.767,24.749,39.767z M7.219,37.767h16.672l2.795-18.105H4.098L7.219,37.767z"/>
	</g>
	<g>
		<path fill="#FFFFFF" d="M15.381,39.767c-0.552,0-1-0.447-1-1V24.218c0-0.553,0.448-1,1-1c0.553,0,1,0.447,1,1v14.549
			C16.381,39.32,15.934,39.767,15.381,39.767z"/>
	</g>
	<g>
		<path fill="#FFFFFF" d="M20.049,39.767c-0.039,0-0.08-0.002-0.119-0.006c-0.549-0.066-0.94-0.563-0.875-1.111l1.732-14.55
			c0.065-0.549,0.568-0.935,1.111-0.875c0.549,0.065,0.939,0.563,0.875,1.111l-1.732,14.55
			C20.981,39.394,20.548,39.767,20.049,39.767z"/>
	</g>
	<g>
		<path fill="#FFFFFF" d="M10.936,39.767c-0.5,0-0.931-0.373-0.992-0.881l-1.733-14.55c-0.065-0.548,0.327-1.046,0.875-1.111
			c0.547-0.06,1.046,0.326,1.111,0.875l1.733,14.55c0.065,0.548-0.327,1.045-0.875,1.111C11.016,39.765,10.976,39.767,10.936,39.767
			z"/>
	</g>
	<path fill="#FFFFFF" d="M15.381,0c0,0,1.41,2.596-0.278,3.44c-1.687,0.844-6.519,0.719-7.616,1.381
		C4.354,6.711,4.9,9.515,4.9,9.515s-6.485,1.013-4.534,7.867c0.859,3.016,6.046,5.161,14.122,3.903
		c3.144-0.489,6.636-2.858,9.615-0.288c1.485,1.282,0.687,2.385,0.687,2.385s5.176-1.916,4.77-6.234
		c-0.24-2.552-2.666-4.01-2.666-4.01s0.938-2.205-1.119-4.792c-2.726-3.427-5.727-3.505-5.727-3.505s0.039-1.669-1.674-3.115
		C16.662,0.28,15.381,0,15.381,0z"/>
</g>
</svg>
