<?xml version="1.0" encoding="utf-8"?>
<!-- Generator: Adobe Illustrator 15.0.0, SVG Export Plug-In . SVG Version: 6.00 Build 0)  -->
<!DOCTYPE svg PUBLIC "-//W3C//DTD SVG 1.1//EN" "http://www.w3.org/Graphics/SVG/1.1/DTD/svg11.dtd">
<svg version="1.1" id="Слой_1" xmlns="http://www.w3.org/2000/svg" xmlns:xlink="http://www.w3.org/1999/xlink" x="0px" y="0px"
	 width="33.846px" height="39.104px" viewBox="0 0 33.846 39.104" enable-background="new 0 0 33.846 39.104" xml:space="preserve">
<polygon fill="#F47821" points="25.687,16.273 33.845,4.969 33.19,4.507 25.413,15.642 24.204,12.866 29.668,0.313 28.933,0 
	23.896,12.159 22.931,9.944 4.129,9.944 0,19.342 27.023,19.342 "/>
<path fill="#F47821" d="M0,19.951l4.093,19.152h18.803l4.129-19.152H0z M13.868,33.177H10.51v-1.025l0.68-0.07l-1.371-2.156
	l-1.377,2.156l0.686,0.07v1.025H5.835v-1.025l0.721-0.141l2.256-3.135l-2.197-3.053l-0.715-0.146v-1.031h3.275v1.031l-0.697,0.076
	l1.318,2.092l1.324-2.092l-0.686-0.076v-1.031h3.287v1.031l-0.715,0.146l-2.197,3.053l2.303,3.129l0.756,0.146V33.177z
	 M20.811,33.177h-6.416v-1.025l0.908-0.176v-6.123l-0.908-0.176v-1.031h0.908h1.711h0.914v1.031l-0.914,0.176v6.012h2.408
	l0.082-1.072h1.307V33.177z"/>
</svg>
