<?xml version="1.0" encoding="utf-8"?>
<!-- Generator: Adobe Illustrator 15.0.0, SVG Export Plug-In . SVG Version: 6.00 Build 0)  -->
<!DOCTYPE svg PUBLIC "-//W3C//DTD SVG 1.1//EN" "http://www.w3.org/Graphics/SVG/1.1/DTD/svg11.dtd">
<svg version="1.1" id="Слой_1" xmlns="http://www.w3.org/2000/svg" xmlns:xlink="http://www.w3.org/1999/xlink" x="0px" y="0px"
	 width="29px" height="43.382px" viewBox="0 0 29 43.382" enable-background="new 0 0 29 43.382" xml:space="preserve">
<g>
	<g>
		<path fill="#FFFFFF" d="M20,43.381H1c-0.552,0-1-0.447-1-1V9.441c0-0.552,0.448-1,1-1h19c0.552,0,1,0.448,1,1v32.94
			C21,42.934,20.552,43.381,20,43.381z M2,41.381h17v-30.94H2V41.381z"/>
	</g>
	<g>
		<path fill="#FFFFFF" d="M1,16.55v25.831h19V16.55H1z M8.845,40.301l-3.563-5.409l5.41-3.563l3.562,5.41L8.845,40.301z
			 M15.196,33.344l-5.427-3.536l3.537-5.427l5.427,3.536L15.196,33.344z"/>
	</g>
	<g>
		<path fill="#FFFFFF" d="M1,43.382c-0.126,0-0.254-0.024-0.378-0.075c-0.511-0.209-0.756-0.793-0.546-1.305l16-39.106
			c0.125-0.308,0.396-0.533,0.723-0.601l11-2.275c0.54-0.111,1.068,0.236,1.182,0.777c0.111,0.541-0.236,1.07-0.777,1.182
			L17.724,4.146L1.925,42.76C1.767,43.148,1.394,43.382,1,43.382z"/>
	</g>
</g>
</svg>
