<?xml version="1.0" encoding="utf-8"?>
<!-- Generator: Adobe Illustrator 16.0.0, SVG Export Plug-In . SVG Version: 6.00 Build 0)  -->
<!DOCTYPE svg PUBLIC "-//W3C//DTD SVG 1.1//EN" "http://www.w3.org/Graphics/SVG/1.1/DTD/svg11.dtd">
<svg version="1.1" id="Layer_1" xmlns="http://www.w3.org/2000/svg" xmlns:xlink="http://www.w3.org/1999/xlink" x="0px" y="0px"
	 width="841.89px" height="595.28px" viewBox="0 0 841.89 595.28" enable-background="new 0 0 841.89 595.28" xml:space="preserve">
<path fill="#FFFFFF" d="M470.748,310.509l16.547-22.105l-18.935-14.252l-19.878,31.165v-54.445h-24.627v96.446h24.627v-31.143
	c5.475,7.894,17.933,24.601,32.194,35.503l15.558-17.604C486.232,326.42,475.6,317.175,470.748,310.509z"/>
<path fill="#FFFFFF" d="M598.45,322.985c-1.549-2.029-1.958-10.591-2.013-21.505h15.178l-0.002-20.443h-15.061
	c0.046-5.412,0.084-11.347,0.084-17.881l-23.56-0.002c0,6.546-0.043,12.477-0.087,17.884h-59.742l0.002,20.443h14.339l0.002,23.713
	H513.25v20.442h50.515v-20.442h-11.546V301.48h20.651c0.077,20.089,1.35,29.947,8.403,37.063c7.062,7.126,17.437,7.674,30.342,7.674
	v-22.164C608.609,324.056,600.16,324.054,598.45,322.985z"/>
<path fill="#FFFFFF" d="M556.764,265.465l-4.75-19.656c-7.792,2.619-16.813,4.324-26.806,5.06l1.082,20.402
	C537.521,270.441,547.776,268.488,556.764,265.465z"/>
<path fill="#FFFFFF" d="M383.128,279.885c-19.232-0.002-34.807,15.034-34.807,33.588c0,18.418,15.575,33.314,34.808,33.314
	c19.23,0,34.939-14.896,34.94-33.316C418.069,294.919,402.359,279.885,383.128,279.885z M383.129,325.119
	c-6.231,0-10.971-5.145-10.972-11.646c0-6.638,4.741-11.784,10.972-11.787c6.092,0.003,11.104,5.149,11.104,11.785
	C394.233,319.975,389.221,325.121,383.129,325.119z"/>
<path fill="#FFFFFF" d="M366.537,258.219L341.28,245.91c-13.828,26.744-22.557,51.01-22.557,51.01
	c-6.157-10.45-12.697-20.748-21.48-32.626c-8.915,11.448-16.277,22.816-22.235,33.072c-6.061-10.885-13.455-23.002-22.236-35.453
	l-21.806,15.229c26.133,37.038,37.335,69.041,37.533,69.565l5.852-0.002l-0.005,0.01l0.007-0.005l-0.002-0.005h2.79
	c0.113-0.311,6.537-17.591,19.651-39.546c13.208,22.443,20.021,39.26,20.137,39.562h8.633c-0.001,0-0.001,0.005-0.001,0.005
	l0.011-0.005c-0.002-0.002-0.003-0.015-0.003-0.015C325.831,345.872,338.559,305.309,366.537,258.219z"/>
</svg>
