<?xml version="1.0" encoding="utf-8"?>
<!-- Generator: Adobe Illustrator 15.0.0, SVG Export Plug-In . SVG Version: 6.00 Build 0)  -->
<!DOCTYPE svg PUBLIC "-//W3C//DTD SVG 1.1//EN" "http://www.w3.org/Graphics/SVG/1.1/DTD/svg11.dtd">
<svg version="1.1" id="Слой_1" xmlns="http://www.w3.org/2000/svg" xmlns:xlink="http://www.w3.org/1999/xlink" x="0px" y="0px"
	 width="14.106px" height="16.763px" viewBox="0 0 14.106 16.763" enable-background="new 0 0 14.106 16.763" xml:space="preserve">
<path fill="#FFFFFF" d="M13.344,0.064c-0.617-0.254-0.975,0.327-0.975,0.327s0.292,0.753-0.587,2.479
	c-0.283,0.556-0.844,1.075-1.343,1.463C10.076,4.117,9.721,3.999,9.438,4.01C5.679,4.159,5.988,7.626,3.65,12.009
	c-1.743,3.267-4.03,3.775-3.597,4.585c0.246,0.459,8.451,0.523,11.944-7.251c0.82-1.826,0.156-3.42-0.771-4.38
	c0.58-0.505,1.248-1.096,1.428-1.304c1.199-1.379,1.453-2.578,1.453-2.578S14.077,0.366,13.344,0.064z"/>
</svg>
