<?xml version="1.0" encoding="utf-8"?>
<!-- Generator: Adobe Illustrator 15.0.0, SVG Export Plug-In . SVG Version: 6.00 Build 0)  -->
<!DOCTYPE svg PUBLIC "-//W3C//DTD SVG 1.1//EN" "http://www.w3.org/Graphics/SVG/1.1/DTD/svg11.dtd">
<svg version="1.1" id="Слой_1" xmlns="http://www.w3.org/2000/svg" xmlns:xlink="http://www.w3.org/1999/xlink" x="0px" y="0px"
	 width="20.054px" height="20.054px" viewBox="0 0 20.054 20.054" enable-background="new 0 0 20.054 20.054" xml:space="preserve">
<path fill="#FFFFFF" d="M10.027,0C4.489,0,0,4.489,0,10.026c0,5.538,4.489,10.027,10.027,10.027s10.027-4.489,10.027-10.027
	C20.054,4.489,15.564,0,10.027,0z M16.598,15.404c-0.279,0.497-1.252,1.379-1.423,1.424c-1.229,0.324-3.298,0.222-5.221-0.388
	c-1.622-0.514-2.987-1.735-3.794-2.543c-0.808-0.809-2.031-2.175-2.545-3.796C3.004,8.178,2.902,6.11,3.227,4.881
	c0.045-0.172,0.927-1.144,1.423-1.424c0.256-0.146,1.034-0.539,1.61-0.368c0.539,0.16,0.877,0.846,1.086,1.813
	c0.21,0.974,0.094,2.406-0.054,2.675C7.061,7.999,6.311,8.311,6.311,8.311s0.018,1.11,0.16,1.438
	c0.422,0.97,1.168,1.701,1.653,2.187c0.484,0.483,1.215,1.229,2.185,1.65c0.327,0.142,1.437,0.16,1.437,0.16s0.313-0.75,0.734-0.982
	c0.268-0.148,1.701-0.264,2.674-0.054c0.967,0.209,1.653,0.548,1.813,1.086C17.137,14.371,16.742,15.148,16.598,15.404z"/>
</svg>
