<?xml version="1.0" encoding="utf-8"?>
<!-- Generator: Adobe Illustrator 15.0.0, SVG Export Plug-In . SVG Version: 6.00 Build 0)  -->
<!DOCTYPE svg PUBLIC "-//W3C//DTD SVG 1.1//EN" "http://www.w3.org/Graphics/SVG/1.1/DTD/svg11.dtd">
<svg version="1.1" id="Слой_1" xmlns="http://www.w3.org/2000/svg" xmlns:xlink="http://www.w3.org/1999/xlink" x="0px" y="0px"
	 width="20.08px" height="20.08px" viewBox="0 0 20.08 20.08" enable-background="new 0 0 20.08 20.08" xml:space="preserve">
<g>
	<g>
		<path fill="#FFFFFF" d="M10.04,1.984c4.442,0,8.055,3.613,8.055,8.055c0,4.442-3.613,8.057-8.055,8.057s-8.056-3.614-8.056-8.057
			C1.984,5.598,5.598,1.984,10.04,1.984 M10.04,0C4.495,0,0,4.495,0,10.039C0,15.585,4.495,20.08,10.04,20.08
			c5.545,0,10.04-4.495,10.04-10.041C20.08,4.495,15.585,0,10.04,0L10.04,0z"/>
	</g>
	<polygon fill="#FFFFFF" points="10.04,4.797 11.744,8.249 15.553,8.802 12.796,11.488 13.447,15.283 10.04,13.491 6.633,15.283 
		7.284,11.488 4.527,8.802 8.336,8.249 	"/>
</g>
</svg>
