<?xml version="1.0" encoding="utf-8"?>
<!-- Generator: Adobe Illustrator 15.0.0, SVG Export Plug-In . SVG Version: 6.00 Build 0)  -->
<!DOCTYPE svg PUBLIC "-//W3C//DTD SVG 1.1//EN" "http://www.w3.org/Graphics/SVG/1.1/DTD/svg11.dtd">
<svg version="1.1" id="Слой_1" xmlns="http://www.w3.org/2000/svg" xmlns:xlink="http://www.w3.org/1999/xlink" x="0px" y="0px"
	 width="20.262px" height="20.262px" viewBox="0 0 20.262 20.262" enable-background="new 0 0 20.262 20.262" xml:space="preserve">
<path fill="#FFFFFF" d="M10.131,0C4.536,0,0,4.536,0,10.131s4.536,10.131,10.131,10.131s10.131-4.536,10.131-10.131
	S15.726,0,10.131,0z M13.79,17.532v0.002h-0.001h-1.13c-0.016-0.039-0.907-2.242-2.638-5.181c-1.717,2.875-2.559,5.138-2.573,5.179
	l-1.169,0.002c-0.025-0.068-1.749-4.626-5.171-9.476l2.847-1.8c1.15,1.63,2.118,3.218,2.912,4.642
	C7.647,9.559,8.61,8.069,9.778,6.57c1.15,1.556,2.126,3.074,2.933,4.442c0.799-2.104,1.772-4.369,2.953-6.68l3.491,1.612
	C15.491,12.111,13.824,17.424,13.79,17.532z"/>
</svg>
